<?xml version="1.0" standalone="no"?>
<!DOCTYPE svg PUBLIC "-//W3C//DTD SVG 20010904//EN"
 "http://www.w3.org/TR/2001/REC-SVG-20010904/DTD/svg10.dtd">
<svg version="1.0" xmlns="http://www.w3.org/2000/svg"
 width="1408.000000pt" height="1408.000000pt" viewBox="0 0 1408.000000 1408.000000"
 preserveAspectRatio="xMidYMid meet">
<metadata>
Created by potrace 1.14, written by Peter Selinger 2001-2017
</metadata>
<g transform="translate(0.000000,1408.000000) scale(0.100000,-0.100000)"
fill="#000000" stroke="none">
<path d="M3340 14055 c-386 -71 -700 -333 -996 -831 -36 -62 -176 -341 -234
-469 -32 -69 -90 -209 -87 -211 1 -1 51 -25 110 -53 107 -50 108 -50 116 -28
5 12 20 54 34 92 37 102 97 254 107 273 5 10 28 60 50 112 187 427 433 751
686 903 249 149 549 144 838 -15 38 -21 71 -38 73 -38 2 0 39 -25 81 -57 83
-61 167 -141 222 -213 19 -25 37 -47 40 -50 6 -6 23 -36 71 -125 62 -117 107
-263 134 -435 6 -40 7 -308 1 -318 -2 -4 -7 -34 -10 -67 -4 -33 -9 -68 -12
-77 -3 -9 -7 -26 -9 -37 -27 -139 -139 -440 -288 -771 -41 -91 -84 -187 -96
-215 -13 -27 -34 -73 -47 -102 -13 -28 -24 -54 -24 -56 0 -3 -18 -45 -41 -94
-47 -103 -39 -84 -169 -378 -55 -126 -109 -248 -119 -270 -10 -22 -62 -139
-116 -260 -54 -121 -108 -242 -120 -270 -13 -27 -49 -108 -80 -180 -32 -71
-71 -158 -86 -193 -16 -34 -29 -64 -29 -67 0 -2 -16 -39 -36 -82 -41 -90 -37
-80 -144 -323 -45 -102 -90 -203 -100 -225 -10 -22 -55 -123 -100 -225 -45
-102 -88 -198 -95 -215 -14 -32 -62 -138 -86 -192 -22 -53 -7 -83 -143 277
-54 140 -106 275 -116 300 -10 25 -57 149 -105 275 -48 127 -93 244 -101 262
-8 17 -14 34 -14 38 0 4 -6 21 -14 38 -8 18 -57 145 -110 282 -52 138 -101
264 -107 280 -7 17 -13 35 -15 40 -5 18 -164 429 -174 450 -5 11 -27 67 -48
125 -40 107 -154 407 -197 515 -13 33 -38 98 -55 145 -18 47 -36 94 -41 105
-5 11 -64 166 -133 345 -68 179 -244 638 -391 1020 -146 382 -312 815 -368
962 l-102 268 -257 0 c-143 0 -258 -4 -258 -9 0 -7 69 -193 145 -386 31 -81
403 -1052 576 -1505 77 -201 144 -374 149 -385 9 -19 250 -649 295 -770 41
-110 275 -719 290 -755 8 -19 83 -213 166 -430 298 -782 620 -1620 668 -1745
11 -27 36 -93 56 -145 66 -172 137 -354 148 -382 12 -27 27 -38 27 -18 0 8
105 246 280 635 58 128 158 352 192 429 21 50 50 113 63 140 12 28 116 260
230 516 114 256 222 498 241 538 19 41 34 76 34 78 0 2 13 32 29 66 48 106 65
143 194 433 68 154 135 303 147 330 13 28 33 73 45 100 13 28 78 174 145 325
67 151 133 300 147 330 14 30 45 99 69 153 24 54 48 105 53 115 30 55 156 366
190 469 142 431 143 801 1 1141 -74 177 -164 309 -300 442 -157 154 -322 244
-570 311 -94 25 -300 32 -400 14z"/>
<path d="M9272 13964 l-104 -104 41 -49 c175 -209 183 -371 31 -597 -39 -57
-425 -611 -649 -929 -19 -27 -93 -133 -165 -235 -642 -915 -1000 -1424 -1021
-1453 l-20 -26 -107 182 c-58 100 -202 344 -319 542 -116 198 -220 374 -229
390 -21 37 -195 332 -260 440 -26 44 -130 220 -230 390 -100 171 -211 358
-246 416 -35 59 -72 122 -82 140 -11 19 -70 120 -132 224 -62 105 -121 204
-131 222 -18 31 -52 90 -76 128 -25 41 -78 130 -83 140 -23 46 -134 226 -142
231 -13 8 -546 10 -554 2 -3 -3 90 -167 207 -364 117 -198 220 -372 229 -389
10 -16 53 -91 97 -165 44 -74 191 -324 328 -555 136 -231 293 -496 349 -590
55 -93 103 -174 105 -180 2 -5 35 -60 73 -123 37 -62 68 -117 68 -122 0 -6 5
-10 10 -10 6 0 10 -4 10 -10 0 -5 24 -49 53 -97 30 -49 65 -109 79 -133 38
-67 468 -793 524 -885 l49 -80 5 -1400 5 -1400 240 0 240 0 5 1485 5 1485 124
175 c108 152 252 356 426 605 27 39 166 237 309 440 142 204 284 406 315 451
52 75 112 160 237 337 28 40 127 180 222 313 262 369 349 518 403 694 31 100
34 277 5 360 -32 91 -108 212 -132 209 -5 -1 -56 -48 -112 -105z"/>
<path d="M11513 6569 c-11 -24 -172 -386 -358 -804 -185 -418 -353 -793 -371
-833 -19 -41 -34 -75 -34 -77 0 -2 -13 -32 -29 -67 -16 -35 -38 -84 -50 -110
-12 -27 -30 -67 -40 -90 -95 -214 -116 -260 -137 -306 -13 -29 -24 -54 -24
-57 0 -3 -35 -81 -101 -222 -16 -34 -29 -64 -29 -67 0 -3 -14 -36 -31 -73 -17
-38 -92 -203 -166 -368 -74 -165 -148 -328 -164 -363 -16 -35 -29 -65 -29 -67
0 -2 -18 -41 -39 -87 -22 -46 -71 -153 -109 -238 -39 -85 -86 -189 -105 -230
-73 -158 -234 -544 -242 -580 -2 -8 -13 -42 -25 -75 -43 -124 -91 -319 -105
-430 -4 -27 -9 -61 -11 -75 -6 -39 -6 -260 1 -310 9 -72 43 -218 58 -253 70
-163 109 -228 199 -337 206 -250 492 -398 843 -436 48 -5 274 -5 298 1 12 3
36 7 52 10 80 15 120 28 210 71 110 51 237 145 355 264 137 136 215 231 320
389 187 283 302 525 542 1141 120 309 208 517 286 678 l50 104 42 -109 c23
-59 53 -136 66 -170 13 -35 35 -91 48 -125 13 -35 65 -171 116 -303 50 -132
95 -249 100 -260 8 -18 157 -407 215 -560 12 -33 71 -186 130 -340 60 -154
130 -336 156 -405 26 -69 65 -172 87 -230 l40 -105 261 -3 c144 -1 261 0 261
2 0 5 -14 41 -31 81 -5 11 -70 180 -144 375 -130 340 -157 410 -231 600 -18
47 -80 211 -139 365 -59 154 -126 330 -150 390 -23 61 -74 193 -113 295 -39
102 -141 367 -226 589 -88 228 -152 409 -148 417 8 15 101 111 169 175 62 58
171 145 251 198 71 48 67 32 37 176 -10 44 -19 94 -22 110 -3 17 -8 33 -11 37
-9 8 -139 -78 -232 -155 -83 -70 -183 -167 -250 -246 l-46 -53 -36 93 c-20 52
-105 272 -188 489 -83 217 -155 404 -160 415 -4 11 -45 117 -90 235 -45 118
-85 224 -90 235 -5 11 -68 175 -140 365 -73 190 -142 372 -155 405 -73 187
-100 260 -174 455 -45 118 -86 224 -91 235 -5 11 -28 70 -51 130 -56 149 -53
146 -76 94z m-182 -776 c6 -16 44 -113 84 -218 207 -542 482 -1258 522 -1360
19 -49 70 -182 113 -295 110 -289 182 -477 294 -767 l97 -252 -34 -78 c-19
-43 -48 -107 -64 -143 -17 -36 -36 -81 -43 -100 -7 -19 -19 -48 -26 -65 -16
-36 -50 -129 -111 -295 -24 -69 -60 -168 -79 -220 -20 -52 -56 -151 -81 -220
-194 -533 -372 -883 -576 -1135 -65 -79 -196 -206 -271 -262 -86 -64 -229
-136 -316 -159 -99 -27 -318 -24 -430 5 -382 101 -694 339 -829 634 -29 64
-64 173 -76 237 -21 114 -27 358 -11 437 3 15 8 48 11 73 4 25 11 63 17 85 5
22 12 48 13 57 26 133 182 510 515 1244 10 22 67 148 125 280 59 131 118 264
132 294 24 53 110 243 336 750 58 129 119 265 136 303 17 37 31 69 31 72 0 2
16 39 36 82 20 43 74 161 119 263 45 102 92 205 103 230 12 25 58 128 102 230
72 164 92 209 133 298 13 28 15 28 28 -5z"/>
<path d="M7896 6583 c-3 -3 -416 -7 -918 -8 -502 -2 -947 -6 -988 -9 -72 -6
-97 -8 -235 -21 -97 -10 -272 -39 -340 -57 -22 -5 -51 -12 -65 -14 -71 -12
-269 -83 -375 -134 -288 -140 -473 -343 -564 -621 -12 -34 -21 -65 -21 -69 0
-4 63 -7 141 -6 l141 1 18 50 c111 310 331 508 692 625 53 17 104 33 115 35
189 39 290 56 379 65 60 5 134 13 164 16 30 3 262 8 516 11 l461 5 0 -3184 c0
-1752 2 -3189 5 -3194 7 -10 457 -12 474 -2 7 5 10 998 10 3170 -1 1740 1
3174 3 3187 l4 23 441 -6 c242 -3 461 -8 486 -10 25 -3 77 -8 115 -11 69 -6
111 -11 170 -20 17 -3 48 -7 70 -11 156 -23 373 -88 500 -151 251 -124 436
-328 505 -559 l12 -41 142 1 141 1 -3 30 c-5 45 -49 163 -84 224 -124 216
-384 413 -678 514 -168 57 -445 116 -625 132 -38 3 -88 8 -110 11 -86 10 -169
14 -415 20 -140 3 -260 7 -267 9 -6 2 -14 1 -17 -2z"/>
</g>
</svg>
